<?xml version="1.0" encoding="utf-8"?>
<!-- Generator: Adobe Illustrator 28.2.0, SVG Export Plug-In . SVG Version: 6.00 Build 0)  -->
<svg version="1.1" id="Layer_1" xmlns="http://www.w3.org/2000/svg" xmlns:xlink="http://www.w3.org/1999/xlink" x="0px" y="0px"
	 viewBox="0 0 409 224" style="enable-background:new 0 0 409 224;" xml:space="preserve">
<style type="text/css">
	.st0{clip-path:url(#SVGID_00000153705483418206848600000012178996648609876119_);}
	.st1{clip-path:url(#SVGID_00000166669013657144675960000017535169185539444910_);}
	.st2{fill:url(#SVGID_00000140712884947422097720000005208407359052603027_);}
	.st3{clip-path:url(#SVGID_00000175308385455388573160000011313195023068199870_);}
	.st4{clip-path:url(#SVGID_00000182508413069318953830000009056018171459406522_);}
	.st5{clip-path:url(#SVGID_00000057827848617245578730000011616589422231973262_);}
	.st6{clip-path:url(#SVGID_00000140733727744923641580000000210373247983547313_);}
</style>
<g>
	<defs>
		<path id="SVGID_1_" d="M184,88c4.9,1.7,10,3.4,15,5.2c3.2,1.2,10.3,3.3,13.4,5c1.9,1,3.2,1.8,3.6,2.1c1.7,1.2,5.3,3.8,8.1,8.5
			c0.6,1.1,2.8,4.9,3.6,10.5c0.2,1.7,0.6,3.9,0.7,6.8c0.1,1,0.1,3,0,6.1c-0.1,3.1-0.2,4.3-0.4,6.5c-0.2,3.4-0.8,6.1-1.1,7.2
			c-0.4,1.4-2.3,6.4-6.4,10.8c0.1-0.6,0.2-1.5,0.1-2.6c-0.6-5-5.6-8.7-11.1-11.2c-12.2-5.6-21.9-9.3-25.9-10.7
			c-19.9-6.9-17.3-6.1-22.7-8.4c-2.9-1.2-5.1-1.9-7.6-3.5c-1.2-0.7-8.6-5.5-11.6-15.1c-0.8-2.5-1.4-4.6-1.6-8.4
			c0-0.4-0.1-0.8-0.1-1.2c-0.3-4.1-0.7-10.7,0.6-16.6c0.6-2.9,3.7-10.6,7.7-16c-0.4,0.6-1.3,1.9-1.3,3.6c-0.1,2.9,2.2,5.1,2.9,5.8
			c2.8,2.9,5.3,4.7,9,6.7c3.3,1.8,5.9,2.6,8.7,3.5C171.6,83.7,177.1,85.5,184,88"/>
	</defs>
	<clipPath id="SVGID_00000051363398011420361540000007216608945956754109_">
		<use xlink:href="#SVGID_1_"  style="overflow:visible;"/>
	</clipPath>
	<g style="clip-path:url(#SVGID_00000051363398011420361540000007216608945956754109_);">
		<g>
			<defs>
				<rect id="SVGID_00000035529180181547301570000001022302843002188192_" x="136.6" y="59.8" width="95.1" height="100.1"/>
			</defs>
			<clipPath id="SVGID_00000001657266239453664550000013063333525489331120_">
				<use xlink:href="#SVGID_00000035529180181547301570000001022302843002188192_"  style="overflow:visible;"/>
			</clipPath>
			<g style="clip-path:url(#SVGID_00000001657266239453664550000013063333525489331120_);">
				
					<image style="overflow:visible;enable-background:new    ;" width="308" height="322" xlink:href="38F67B71.png"  transform="matrix(0.309 0 0 0.309 136.63 60.077)">
				</image>
			</g>
		</g>
	</g>
</g>
<g>
	
		<linearGradient id="SVGID_00000037668826170974299350000002451322303455698354_" gradientUnits="userSpaceOnUse" x1="147.2066" y1="609.4799" x2="229.2712" y2="609.4799" gradientTransform="matrix(1 0 0 1 0 -555.7798)">
		<stop  offset="0" style="stop-color:#FFFFFF"/>
		<stop  offset="1" style="stop-color:#231F20"/>
	</linearGradient>
	<path style="fill:url(#SVGID_00000037668826170974299350000002451322303455698354_);" d="M229,19.4c-0.1,2.4,1.5,29.2-1.8,36.6
		c-0.9,2.1-3.9,7.8-9.6,13.2c-3.1,2.9-5.9,4.5-8.7,5.9c-5.8,3.1-14.5,8-24.9,12.9c-6.9-2.5-12.4-4.3-16.2-5.5
		c-2.9-0.9-5.4-1.7-8.7-3.5c-3.7-2-6.2-3.8-9-6.7c-1-1-5-4.7-1.6-9.4c1.9-2.6,5-4.4,5.8-5c4.5-2.9,3.9-2.4,9.4-5.6L229,19.4
		L229,19.4L229,19.4z"/>
	<g>
		<defs>
			<path id="SVGID_00000183957648781041500620000016410589249933134268_" d="M229,19.4c-0.1,2.4,1.5,29.2-1.8,36.6
				c-0.9,2.1-3.9,7.8-9.6,13.2c-3.1,2.9-5.9,4.5-8.7,5.9c-5.8,3.1-14.5,8-24.9,12.9c-6.9-2.5-12.4-4.3-16.2-5.5
				c-2.9-0.9-5.4-1.7-8.7-3.5c-3.7-2-6.2-3.8-9-6.7c-1-1-5-4.7-1.6-9.4c1.9-2.6,5-4.4,5.8-5c4.5-2.9,3.9-2.4,9.4-5.6L229,19.4
				L229,19.4L229,19.4z"/>
		</defs>
		<clipPath id="SVGID_00000116202778047302431780000007080384876502156209_">
			<use xlink:href="#SVGID_00000183957648781041500620000016410589249933134268_"  style="overflow:visible;"/>
		</clipPath>
		<g style="clip-path:url(#SVGID_00000116202778047302431780000007080384876502156209_);">
			<g>
				<defs>
					<rect id="SVGID_00000096031348129424719180000014842365172259670436_" x="144" y="16.1" width="88.5" height="75.1"/>
				</defs>
				<clipPath id="SVGID_00000129184598674441053920000012033487259801954208_">
					<use xlink:href="#SVGID_00000096031348129424719180000014842365172259670436_"  style="overflow:visible;"/>
				</clipPath>
				<g style="clip-path:url(#SVGID_00000129184598674441053920000012033487259801954208_);">
					
						<image style="overflow:visible;enable-background:new    ;" width="285" height="244" xlink:href="38F67B73.png"  transform="matrix(0.3087 0 0 0.3087 144.251 16.03)">
					</image>
				</g>
			</g>
		</g>
	</g>
</g>
<g>
	<defs>
		<path id="SVGID_00000060716577882126486950000016208870481925683619_" d="M220.7,156.7c0.1-0.6,0.2-1.5,0.1-2.6
			c-0.6-5-5.6-8.7-11.1-11.2c-12.2-5.6-20.5-8.8-24.5-10.2c-2.3,1.2-6.2,3.2-10.1,5.2c-10.2,5.5-12.8,6.3-14.6,7.4
			c0,0-6.9,3.9-11.5,8.3c-12,11.7-8.9,43-8.3,47.5c0.3-0.2,0.8-0.6,1.3-0.9c1.1-0.7,2-1.1,2.3-1.3c1.4-0.7,25.2-12.5,62.3-31.1
			c0.4-0.2,6-3.7,6.4-4C217.6,160.7,218.4,159.6,220.7,156.7L220.7,156.7L220.7,156.7z"/>
	</defs>
	<clipPath id="SVGID_00000119098579137986446610000007213481345384642688_">
		<use xlink:href="#SVGID_00000060716577882126486950000016208870481925683619_"  style="overflow:visible;"/>
	</clipPath>
	<g style="clip-path:url(#SVGID_00000119098579137986446610000007213481345384642688_);">
		<g>
			<defs>
				<rect id="SVGID_00000173845793730957132270000004798303003506500021_" x="136.8" y="129.4" width="87.3" height="74.9"/>
			</defs>
			<clipPath id="SVGID_00000055677959586790771400000013073711947772088487_">
				<use xlink:href="#SVGID_00000173845793730957132270000004798303003506500021_"  style="overflow:visible;"/>
			</clipPath>
			<g style="clip-path:url(#SVGID_00000055677959586790771400000013073711947772088487_);">
				
					<image style="overflow:visible;enable-background:new    ;" width="284" height="241" xlink:href="38F67B76.png"  transform="matrix(0.3089 0 0 0.3089 136.63 129.6665)">
				</image>
			</g>
		</g>
	</g>
</g>
<path d="M41.1,119.5v21.2H18.9v-57h36.8c8.2,0,14.5,0.5,18.9,1.6c4.4,1.1,8.2,3,11.7,5.7c3.4,2.8,5.1,6.1,5.1,10.1
	c0,2.8-0.9,5.6-2.7,8.2c-1.8,2.7-4.4,4.8-7.7,6.3c-3.3,1.5-6.6,2.6-9.7,3.1s-8,0.8-14.7,0.8L41.1,119.5L41.1,119.5L41.1,119.5z
	 M40.4,109.2h14.2c5.4,0,9.2-0.8,11.4-2.3c2.2-1.5,3.3-3.3,3.3-5.3c0-2.3-1.2-4.2-3.7-5.5s-6.2-2.1-11.1-2.1H40.4L40.4,109.2
	L40.4,109.2z"/>
<path d="M127.7,84.2v56.6h-23.4V84.2C104.3,84.2,127.7,84.2,127.7,84.2z"/>
<path d="M266.3,119.7v21.2h-22.3v-57h36.8c8.2,0,14.5,0.5,18.9,1.6s8.2,3,11.7,5.7c3.4,2.8,5.1,6.1,5.1,10.1c0,2.8-0.9,5.6-2.7,8.2
	c-1.8,2.7-4.4,4.8-7.7,6.3s-6.6,2.6-9.7,3.1s-8,0.8-14.7,0.8L266.3,119.7L266.3,119.7z M265.6,109.3h14.2c5.4,0,9.2-0.8,11.4-2.3
	s3.3-3.3,3.3-5.3c0-2.3-1.2-4.2-3.7-5.5s-6.1-2.1-11.1-2.1h-14.2L265.6,109.3L265.6,109.3L265.6,109.3z"/>
<path d="M351.9,129.7h38.3v11.2H329V84.4h22.9L351.9,129.7L351.9,129.7z"/>
</svg>
